<svg xmlns="http://www.w3.org/2000/svg" width="43.02" height="63.742" viewBox="0 0 43.02 63.742">
  <path id="_001-man" data-name="001-man" d="M121.053,56.405V62.68a1.062,1.062,0,1,1-2.124,0V56.405a8.834,8.834,0,0,0-8.839-8.839,6.522,6.522,0,0,1-5.611-3.151,1.062,1.062,0,1,1,1.814-1.105,4.413,4.413,0,0,0,3.8,2.131,10.958,10.958,0,0,1,10.964,10.964ZM102.516,45.757a1.062,1.062,0,0,1-.812,1.264,10.167,10.167,0,0,1-7.9-1.546A6.442,6.442,0,0,1,89,47.566a8.834,8.834,0,0,0-8.839,8.839V62.68a1.062,1.062,0,1,1-2.124,0V56.405A10.957,10.957,0,0,1,89,45.442a4.428,4.428,0,0,0,4.439-4.427v-.28a14.23,14.23,0,0,1-8.089-12.3,4.335,4.335,0,0,1-3.33-4.2V18.729c-.058-2.7.342-9.446,5.264-14.191C93.359-1.321,103.106-.949,110.273,2.5A1.065,1.065,0,0,1,110.5,4.27a14.337,14.337,0,0,1,8.773,6.312,1.173,1.173,0,0,1,.244.835,1.074,1.074,0,0,1-.3.674,6.936,6.936,0,0,0-2.007,4.9v7.246a1.062,1.062,0,1,1-2.124,0V16.99a9.042,9.042,0,0,1,2.064-5.774,12.27,12.27,0,0,0-8.807-5.171l-1.867-.2a1.063,1.063,0,0,1-.291-2.038l.849-.35C95.967-.4,84.141,3.885,84.141,18.717v5.518a2.193,2.193,0,0,0,1.2,1.943V19.292a7.444,7.444,0,0,1,7.436-7.436h13.543a7.444,7.444,0,0,1,7.436,7.435v8.7A14.227,14.227,0,0,1,95.537,41.54a6.5,6.5,0,0,1-.556,2.169,8.044,8.044,0,0,0,6.271,1.237,1.062,1.062,0,0,1,1.264.812Zm-2.973-5.766a12.1,12.1,0,0,0,12.083-12.083V19.292a5.317,5.317,0,0,0-5.311-5.311H92.771a5.317,5.317,0,0,0-5.311,5.311v8.616A12.1,12.1,0,0,0,99.543,39.991ZM110.3,58.3h-3.187a1.062,1.062,0,1,0,0,2.124H110.3a1.062,1.062,0,1,0,0-2.124Z" transform="translate(-78.033 0)"/>
</svg>
