<svg xmlns="http://www.w3.org/2000/svg" width="43.662" height="62.742" viewBox="0 0 43.662 62.742">
  <path id="_002-woman" data-name="002-woman" d="M115.993,55.519V61.7a1.046,1.046,0,1,1-2.091,0V55.519a8.7,8.7,0,0,0-8.7-8.7,6.42,6.42,0,0,1-5.524-3.1,1.046,1.046,0,1,1,1.786-1.088,4.344,4.344,0,0,0,3.738,2.1A10.787,10.787,0,0,1,115.993,55.519Zm-17.446-8.1-3.729,2.887L88.477,45.4a6.406,6.406,0,0,0,2.4-4.515A13.988,13.988,0,0,0,108.8,27.466c0-.081,0-7.321,0-7.4a1.045,1.045,0,0,0-1.042-.979,4.3,4.3,0,0,1-2.729-.5,4.758,4.758,0,0,1-1.977-3.8,1.047,1.047,0,0,0-1.65-.86A33.7,33.7,0,0,1,86.576,19.8a1.046,1.046,0,0,0,.144,2.081,34.406,34.406,0,0,0,7.41-1.815,35.854,35.854,0,0,0,7.094-3.507,5.906,5.906,0,0,0,5.49,4.646v6.26a11.895,11.895,0,0,1-23.79,0V20.13a1.046,1.046,0,1,0-2.091,0v7.336a14,14,0,0,0,7.973,12.626v.276a4.36,4.36,0,0,1-4.369,4.358,10.788,10.788,0,0,0-3.859.711L79.9,44.9a12.772,12.772,0,0,1-2.677-17.084,14.447,14.447,0,0,0,2.431-8.034V14.118A12.039,12.039,0,0,1,91.681,2.091h6.274a12.039,12.039,0,0,1,12.026,12.026v5.664A14.373,14.373,0,0,0,112.4,27.8a12.774,12.774,0,0,1-.1,14.355,1.046,1.046,0,1,0,1.722,1.187,14.864,14.864,0,0,0,.119-16.7,12.288,12.288,0,0,1-2.067-6.855V14.117A14.133,14.133,0,0,0,97.955,0H91.681A14.133,14.133,0,0,0,77.564,14.118v5.664a12.361,12.361,0,0,1-2.08,6.875,14.86,14.86,0,0,0,3.049,19.825,10.763,10.763,0,0,0-4.89,9.038V61.7a1.046,1.046,0,0,0,2.091,0V55.519a8.7,8.7,0,0,1,8.7-8.7,6.484,6.484,0,0,0,2.034-.327l7.708,5.967a1.046,1.046,0,0,0,1.28,0l4.369-3.383a1.046,1.046,0,0,0-1.28-1.654Z" transform="translate(-72.987 0)"/>
</svg>
